<?xml version="1.0" encoding="UTF-8"?><svg id="Layer_1" xmlns="http://www.w3.org/2000/svg" xmlns:xlink="http://www.w3.org/1999/xlink" viewBox="0 0 48 48"><defs><style>.cls-1{fill:url(#linear-gradient);}.cls-2{fill:url(#linear-gradient-3);}.cls-3{fill:url(#linear-gradient-4);}.cls-4{fill:url(#linear-gradient-2);}.cls-5{fill:url(#linear-gradient-6);}.cls-6{fill:url(#linear-gradient-5);}</style><linearGradient id="linear-gradient" x1="24" y1="7.941" x2="24" y2="40.769" gradientUnits="userSpaceOnUse"><stop offset="0" stop-color="#3e4154"/><stop offset="1" stop-color="#1b2129"/></linearGradient><linearGradient id="linear-gradient-2" x1="31" y1="14.5" x2="36" y2="14.5" gradientUnits="userSpaceOnUse"><stop offset="0" stop-color="#fed200"/><stop offset="1" stop-color="#f59815"/></linearGradient><linearGradient id="linear-gradient-3" x1="31.732" y1="21.732" x2="35.268" y2="25.268" gradientUnits="userSpaceOnUse"><stop offset="0" stop-color="#6fc6fc"/><stop offset="1" stop-color="#50a7f6"/></linearGradient><linearGradient id="linear-gradient-4" x1="27.232" y1="17.232" x2="30.768" y2="20.768" gradientUnits="userSpaceOnUse"><stop offset="0" stop-color="#e85155"/><stop offset="1" stop-color="#c21d2c"/></linearGradient><linearGradient id="linear-gradient-5" x1="36.232" y1="17.232" x2="39.768" y2="20.768" gradientUnits="userSpaceOnUse"><stop offset="0" stop-color="#34ca82"/><stop offset="1" stop-color="#37a477"/></linearGradient><linearGradient id="linear-gradient-6" x1="10.444" y1="14.944" x2="19.294" y2="23.794" gradientUnits="userSpaceOnUse"><stop offset="0" stop-color="#edf1f2"/><stop offset="1" stop-color="#c6cbcc"/></linearGradient></defs><path class="cls-1" d="M41.714,40.829c-1.688,0-3.288-.814-4.279-2.179l-4.665-6.414c-.562-.774-1.47-1.236-2.427-1.236h-12.686c-.957,0-1.864,.462-2.427,1.236l-4.665,6.415c-.991,1.364-2.591,2.178-4.279,2.178-.814,0-1.631-.193-2.362-.559-2.029-1.015-3.185-3.206-2.874-5.453l2.151-15.593c.882-6.398,6.418-11.224,12.878-11.224h15.842c6.46,0,11.996,4.825,12.878,11.224l2.151,15.593c.311,2.247-.845,4.438-2.874,5.453-.73,.365-1.548,.559-2.362,.559Z"/><circle class="cls-4" cx="33.5" cy="14.5" r="2.5"/><circle class="cls-2" cx="33.5" cy="23.5" r="2.5"/><circle class="cls-3" cx="29" cy="19" r="2.5"/><circle class="cls-6" cx="38" cy="19" r="2.5"/><path class="cls-5" d="M18.5,16.5h-1.5v-1.5c0-1.378-1.121-2.5-2.5-2.5s-2.5,1.122-2.5,2.5v1.5h-1.5c-1.379,0-2.5,1.122-2.5,2.5s1.121,2.5,2.5,2.5h1.5v1.5c0,1.378,1.121,2.5,2.5,2.5s2.5-1.122,2.5-2.5v-1.5h1.5c1.379,0,2.5-1.122,2.5-2.5s-1.121-2.5-2.5-2.5Z"/></svg>