<?xml version="1.0" encoding="UTF-8"?><svg id="Layer_1" xmlns="http://www.w3.org/2000/svg" xmlns:xlink="http://www.w3.org/1999/xlink" viewBox="0 0 48 48"><defs><style>.cls-1{fill:url(#linear-gradient);}.cls-2{fill:url(#linear-gradient-8);}.cls-3{fill:url(#linear-gradient-9);}.cls-4{fill:url(#linear-gradient-3);}.cls-5{fill:url(#linear-gradient-4);}.cls-6{fill:url(#linear-gradient-6);}.cls-7{fill:url(#linear-gradient-7);}.cls-8{fill:url(#linear-gradient-5);}.cls-9{fill:url(#linear-gradient-12);}.cls-10{fill:url(#linear-gradient-10);}.cls-11{fill:url(#linear-gradient-11);}.cls-12{fill:url(#linear-gradient-2);opacity:.35;}</style><linearGradient id="linear-gradient" x1="24" y1="9.041" x2="24" y2="41.482" gradientUnits="userSpaceOnUse"><stop offset="0" stop-color="#6fc6fc"/><stop offset="1" stop-color="#50a7f6"/></linearGradient><linearGradient id="linear-gradient-2" x1="24" y1="33.346" x2="24" y2="40.953" gradientUnits="userSpaceOnUse"><stop offset="0" stop-color="#4793eb"/><stop offset="1" stop-color="#2367ec"/></linearGradient><linearGradient id="linear-gradient-3" x1="6.556" y1="22" x2="34.77" y2="22" gradientUnits="userSpaceOnUse"><stop offset="0" stop-color="#edf1f2"/><stop offset="1" stop-color="#c6cbcc"/></linearGradient><linearGradient id="linear-gradient-4" x1="24.429" x2="47.719" xlink:href="#linear-gradient-3"/><linearGradient id="linear-gradient-5" x1="9" y1="14" x2="21" y2="14" gradientUnits="userSpaceOnUse"><stop offset="0" stop-color="#c6cbcc"/><stop offset="1" stop-color="#9fa5a6"/></linearGradient><linearGradient id="linear-gradient-6" x1="27" x2="39" xlink:href="#linear-gradient-5"/><linearGradient id="linear-gradient-7" y1="19" y2="19" xlink:href="#linear-gradient-5"/><linearGradient id="linear-gradient-8" x1="27" y1="19" x2="39" y2="19" xlink:href="#linear-gradient-5"/><linearGradient id="linear-gradient-9" y1="24" y2="24" xlink:href="#linear-gradient-5"/><linearGradient id="linear-gradient-10" x1="27" y1="24" x2="39" y2="24" xlink:href="#linear-gradient-5"/><linearGradient id="linear-gradient-11" y1="29" y2="29" xlink:href="#linear-gradient-5"/><linearGradient id="linear-gradient-12" x1="27" y1="29" x2="39" y2="29" xlink:href="#linear-gradient-5"/></defs><path class="cls-1" d="M43,9H5c-1.654,0-3,1.346-3,3v23c0,2.757,2.243,5,5,5h11.176c.672,0,1.301,.207,1.771,.582,1.143,.915,2.583,1.418,4.053,1.418s2.91-.503,4.053-1.418c.47-.375,1.099-.582,1.771-.582h11.176c2.757,0,5-2.243,5-5V12c0-1.654-1.346-3-3-3Z"/><path class="cls-12" d="M40,33H8l-4.986,4.986c.913,1.215,2.353,2.014,3.986,2.014h11.176c.672,0,1.301,.207,1.771,.582,1.143,.915,2.583,1.418,4.053,1.418s2.91-.503,4.053-1.418c.47-.375,1.099-.582,1.771-.582h11.176c1.633,0,3.073-.799,3.986-2.014l-4.986-4.986Z"/><path class="cls-4" d="M39,6h-9.578c-1.783,0-3.51,.523-4.993,1.512l-.43,.287-.43-.287c-1.483-.989-3.209-1.512-4.993-1.512H9c-1.654,0-3,1.346-3,3v24c0,1.654,1.346,3,3,3h9.578c1.387,0,2.729,.407,3.883,1.176l.984,.656c.168,.112,.361,.168,.555,.168s.387-.056,.555-.168l.984-.656c1.154-.769,2.497-1.176,3.883-1.176h9.578c1.654,0,3-1.346,3-3V9c0-1.654-1.346-3-3-3Z"/><path class="cls-5" d="M24.555,37.832l.984-.656c1.154-.769,2.497-1.176,3.883-1.176h9.578c1.654,0,3-1.346,3-3V9c0-1.654-1.346-3-3-3h-9.578c-1.783,0-3.51,.523-4.993,1.512l-.43,.287v30.202c.193,0,.387-.056,.555-.168Z"/><path class="cls-8" d="M20,15H10c-.552,0-1-.448-1-1s.448-1,1-1h10c.552,0,1,.448,1,1s-.448,1-1,1Z"/><path class="cls-6" d="M38,15h-10c-.552,0-1-.448-1-1s.448-1,1-1h10c.552,0,1,.448,1,1s-.448,1-1,1Z"/><path class="cls-7" d="M20,20H10c-.552,0-1-.448-1-1s.448-1,1-1h10c.552,0,1,.448,1,1s-.448,1-1,1Z"/><path class="cls-2" d="M38,20h-10c-.552,0-1-.448-1-1s.448-1,1-1h10c.552,0,1,.448,1,1s-.448,1-1,1Z"/><path class="cls-3" d="M20,25H10c-.552,0-1-.448-1-1s.448-1,1-1h10c.552,0,1,.448,1,1s-.448,1-1,1Z"/><path class="cls-10" d="M38,25h-10c-.552,0-1-.448-1-1s.448-1,1-1h10c.552,0,1,.448,1,1s-.448,1-1,1Z"/><path class="cls-11" d="M20,30H10c-.552,0-1-.448-1-1s.448-1,1-1h10c.552,0,1,.448,1,1s-.448,1-1,1Z"/><path class="cls-9" d="M38,30h-10c-.552,0-1-.448-1-1s.448-1,1-1h10c.552,0,1,.448,1,1s-.448,1-1,1Z"/></svg>