<?xml version="1.0" encoding="UTF-8" standalone="no"?> <svg id="Layer_1" data-name="Layer 1" xmlns="http://www.w3.org/2000/svg" viewBox="0 0 48 48"><defs><style>.cls-1{fill:#2d4a60;}.cls-2{fill:#263f52;}.cls-3{fill:#eaeff0;}.cls-4{fill:#d9e1e2;}</style></defs><title>TV</title><rect class="cls-1" x="2" y="6" width="44" height="29" rx="5"/><path class="cls-2" d="M44.2,33.812,3.8,7.188A4.968,4.968,0,0,0,2,11V30a5.006,5.006,0,0,0,5,5H20.5v4h7V35H41A4.953,4.953,0,0,0,44.2,33.812Z"/><path class="cls-1" d="M39,37H9a3,3,0,0,0-3,3,2,2,0,0,0,2,2H40a2,2,0,0,0,2-2A3,3,0,0,0,39,37Z"/><rect class="cls-3" x="4" y="8" width="40" height="25" rx="3"/><path class="cls-4" d="M42.409,32.633,5.591,8.367A2.986,2.986,0,0,0,4,11V30a3,3,0,0,0,3,3H41A2.961,2.961,0,0,0,42.409,32.633Z"/></svg>